<?xml version="1.0" standalone="no"?>
<!DOCTYPE svg PUBLIC "-//W3C//DTD SVG 20010904//EN"
 "http://www.w3.org/TR/2001/REC-SVG-20010904/DTD/svg10.dtd">
<svg version="1.0" xmlns="http://www.w3.org/2000/svg"
 width="3400.000000pt" height="1628.000000pt" viewBox="0 0 3400.000000 1628.000000"
 preserveAspectRatio="xMidYMid meet">

<g transform="translate(0.000000,1628.000000) scale(0.100000,-0.100000)"
fill="#E65100" stroke="none">
<path d="M16949 14223 c-23 -27 -68 -75 -98 -109 -31 -33 -84 -91 -118 -130
-34 -38 -80 -89 -103 -114 -70 -77 -72 -67 42 -192 57 -62 110 -119 118 -128
29 -30 168 -185 189 -210 l21 -25 21 25 c12 14 89 99 173 190 219 239 220 240
229 255 5 10 -10 33 -44 72 -29 32 -66 74 -83 93 -141 159 -290 320 -296 320
-4 0 -27 -21 -51 -47z"/>
<path d="M16080 13209 c-89 -111 -164 -208 -167 -216 -4 -10 65 -85 213 -229
120 -118 221 -214 224 -213 3 0 49 55 103 122 93 117 150 185 210 251 15 17
27 34 27 39 0 11 -431 447 -441 447 -4 0 -80 -91 -169 -201z"/>
<path d="M17536 13193 c-193 -194 -234 -244 -208 -255 7 -3 77 -85 150 -176
19 -22 41 -50 50 -60 10 -11 42 -50 72 -86 30 -37 57 -65 61 -64 13 5 439 426
439 434 0 17 -326 424 -340 424 -5 0 -105 -98 -224 -217z"/>
<path d="M16918 12543 c-42 -49 -84 -97 -95 -108 -10 -11 -47 -54 -83 -95 -36
-41 -71 -81 -78 -88 -14 -16 -7 -28 54 -95 22 -23 88 -96 148 -162 60 -66 115
-127 123 -135 15 -16 8 -23 128 110 32 36 97 107 144 158 47 52 87 97 89 102
4 12 -334 400 -348 400 -4 0 -40 -39 -82 -87z"/>
<path d="M15540 12512 c-8 -10 -31 -40 -49 -67 -19 -28 -38 -52 -41 -55 -4 -3
-22 -27 -40 -55 -19 -27 -37 -51 -42 -53 -4 -2 -8 -8 -8 -14 0 -6 -16 -32 -35
-58 l-35 -47 33 -31 c17 -16 73 -65 122 -109 50 -43 105 -91 124 -108 19 -16
56 -50 82 -75 85 -80 109 -96 109 -72 0 5 59 89 130 188 l131 179 -59 55 c-74
69 -186 168 -232 206 -19 16 -37 31 -40 34 -22 23 -120 100 -127 100 -5 0 -15
-8 -23 -18z"/>
<path d="M18370 12483 c-30 -25 -89 -75 -130 -112 -41 -36 -90 -79 -109 -96
-18 -16 -60 -55 -93 -85 l-59 -55 105 -143 c58 -79 118 -164 133 -188 16 -24
31 -43 35 -44 3 0 37 28 75 63 38 34 102 91 143 127 120 106 164 144 177 157
7 6 25 21 39 32 l26 21 -36 49 c-20 27 -36 52 -36 56 0 3 -6 12 -13 19 -7 8
-51 66 -97 130 -45 64 -88 116 -94 115 -6 0 -36 -21 -66 -46z"/>
<path d="M17600 11782 c-41 -37 -126 -117 -189 -179 l-114 -111 34 -44 c18
-23 36 -45 39 -48 3 -3 39 -50 80 -105 41 -55 83 -109 92 -120 9 -11 25 -30
35 -43 l18 -23 184 185 184 185 -58 77 c-32 43 -96 125 -143 183 -46 58 -85
107 -86 108 -1 1 -35 -28 -76 -65z"/>
<path d="M16255 11748 c-38 -49 -75 -95 -81 -101 -28 -32 -126 -168 -123 -171
2 -3 85 -86 183 -186 142 -144 181 -179 188 -166 5 8 14 21 21 28 6 7 32 40
57 73 25 33 47 62 50 65 3 3 21 25 40 50 19 25 37 47 40 50 17 15 70 89 70 98
0 14 -348 352 -363 351 -6 0 -43 -41 -82 -91z"/>
<path d="M18955 11685 c-22 -19 -43 -35 -47 -35 -4 0 -15 -8 -25 -18 -10 -10
-79 -68 -153 -128 -74 -60 -149 -122 -167 -138 l-32 -28 39 -62 c22 -33 72
-116 112 -183 40 -67 75 -123 78 -123 3 0 23 16 45 36 22 19 65 54 95 77 30
23 60 47 66 52 36 32 236 184 248 188 7 2 5 16 -6 38 -26 52 -90 163 -97 169
-3 3 -15 21 -25 40 -11 19 -36 61 -56 92 l-36 58 -39 -35z"/>
<path d="M14925 11593 c-38 -63 -72 -120 -74 -125 -2 -5 -20 -39 -41 -75 l-39
-65 82 -62 c83 -62 273 -213 337 -267 19 -16 39 -29 45 -29 5 0 22 21 38 48
15 26 32 54 37 62 27 41 122 199 137 228 16 31 16 33 -3 46 -10 8 -29 22 -40
32 -74 64 -398 324 -404 324 -3 0 -36 -53 -75 -117z"/>
<path d="M16973 11157 c-10 -13 -61 -70 -114 -128 -164 -177 -179 -194 -179
-204 0 -10 21 -34 139 -161 32 -33 83 -93 115 -132 32 -40 61 -72 65 -72 4 0
53 53 109 118 56 64 127 144 157 177 30 33 55 65 55 70 0 6 -17 28 -38 51 -20
22 -91 100 -156 172 -66 73 -123 132 -127 132 -4 0 -16 -10 -26 -23z"/>
<path d="M15711 11017 c-25 -34 -77 -112 -117 -173 l-72 -112 51 -42 c52 -41
185 -161 282 -252 27 -26 53 -48 57 -48 4 0 13 10 19 23 7 12 56 88 110 170
55 81 99 151 99 156 0 6 -9 16 -20 24 -10 7 -54 47 -97 88 -125 118 -252 228
-263 228 -3 0 -25 -28 -49 -62z"/>
<path d="M18200 11047 c-20 -17 -60 -54 -90 -81 -30 -27 -99 -89 -152 -138
l-97 -89 32 -51 c47 -73 56 -88 120 -183 32 -48 61 -93 64 -101 9 -24 26 -16
88 44 33 31 98 91 145 132 47 41 101 90 120 107 19 18 38 33 43 33 17 0 3 28
-73 142 -44 66 -80 124 -80 129 0 5 -3 9 -8 9 -4 0 -18 18 -32 40 -14 22 -29
40 -35 40 -5 0 -26 -15 -45 -33z"/>
<path d="M14547 10883 c-3 -5 11 -15 29 -24 19 -9 34 -15 34 -13 0 8 -59 43
-63 37z"/>
<path d="M19409 10869 l-24 -21 27 16 c20 12 28 12 31 3 4 -9 6 -9 6 0 2 22
-17 23 -40 2z"/>
<path d="M14525 10850 c-3 -5 -1 -10 4 -10 6 0 11 5 11 10 0 6 -2 10 -4 10 -3
0 -8 -4 -11 -10z"/>
<path d="M14660 10800 c14 -11 30 -20 35 -20 6 0 -1 9 -15 20 -14 11 -29 20
-35 20 -5 0 1 -9 15 -20z"/>
<path d="M19318 10803 c7 -3 16 -2 19 1 4 3 -2 6 -13 5 -11 0 -14 -3 -6 -6z"/>
<path d="M14501 10784 c0 -11 3 -14 6 -6 3 7 2 16 -1 19 -3 4 -6 -2 -5 -13z"/>
<path d="M14752 10734 c10 -10 20 -15 24 -12 3 4 -5 12 -18 18 -22 12 -22 12
-6 -6z"/>
<path d="M14805 10700 c3 -5 8 -10 11 -10 2 0 4 5 4 10 0 6 -5 10 -11 10 -5 0
-7 -4 -4 -10z"/>
<path d="M19160 10695 c-11 -13 -10 -14 4 -9 9 3 16 10 16 15 0 13 -6 11 -20
-6z"/>
<path d="M14431 10639 c-14 -42 -7 -49 9 -9 7 17 10 33 8 36 -3 3 -11 -9 -17
-27z"/>
<path d="M19081 10640 c-30 -26 -14 -26 19 0 14 11 21 20 15 19 -5 0 -21 -9
-34 -19z"/>
<path d="M14900 10631 c0 -5 7 -11 15 -15 8 -3 15 -1 15 3 0 5 -7 11 -15 15
-8 3 -15 1 -15 -3z"/>
<path d="M19570 10570 c6 -11 12 -20 14 -20 2 0 2 9 -1 20 -3 11 -9 20 -15 20
-5 0 -4 -9 2 -20z"/>
<path d="M14386 10543 c-4 -9 -3 -20 1 -24 4 -4 9 3 9 17 2 28 -1 31 -10 7z"/>
<path d="M18980 10540 c0 -5 5 -10 10 -10 6 0 10 5 10 10 0 6 -4 10 -10 10 -5
0 -10 -4 -10 -10z"/>
<path d="M14985 10530 c-3 -5 -1 -10 4 -10 6 0 11 5 11 10 0 6 -2 10 -4 10 -3
0 -8 -4 -11 -10z"/>
<path d="M14967 10493 c-4 -3 -7 -11 -7 -17 0 -6 5 -5 12 2 6 6 9 14 7 17 -3
3 -9 2 -12 -2z"/>
<path d="M16385 10486 c-5 -7 -61 -79 -122 -159 -62 -80 -113 -149 -113 -153
0 -4 44 -51 98 -104 53 -53 131 -133 172 -179 l76 -83 32 43 c169 229 212 289
212 296 0 4 -78 86 -173 181 -135 136 -174 169 -182 158z"/>
<path d="M17444 10337 c-88 -89 -166 -170 -173 -179 -12 -16 -7 -27 38 -85 28
-38 54 -72 59 -78 4 -5 30 -41 56 -80 27 -38 55 -78 63 -87 14 -16 30 -3 194
164 98 100 175 187 172 192 -9 15 -126 170 -133 176 -3 3 -29 35 -59 73 -29
37 -53 67 -54 66 -1 0 -74 -73 -163 -162z"/>
<path d="M19030 10455 c0 -5 5 -17 10 -25 5 -8 10 -10 10 -5 0 6 -5 17 -10 25
-5 8 -10 11 -10 5z"/>
<path d="M19439 10423 c-13 -17 -13 -17 6 -3 11 8 22 16 24 17 2 2 0 3 -6 3
-6 0 -17 -8 -24 -17z"/>
<path d="M14540 10426 c0 -2 7 -9 15 -16 9 -7 15 -8 15 -2 0 5 -7 12 -15 16
-8 3 -15 4 -15 2z"/>
<path d="M14585 10390 c3 -5 11 -10 16 -10 6 0 7 5 4 10 -3 6 -11 10 -16 10
-6 0 -7 -4 -4 -10z"/>
<path d="M19060 10395 c0 -5 5 -17 10 -25 5 -8 10 -10 10 -5 0 6 -5 17 -10 25
-5 8 -10 11 -10 5z"/>
<path d="M14895 10344 c0 -29 1 -29 14 -5 8 14 7 20 -2 24 -7 3 -12 -5 -12
-19z"/>
<path d="M19350 10360 c-9 -6 -10 -10 -3 -10 6 0 15 5 18 10 8 12 4 12 -15 0z"/>
<path d="M19310 10340 c-8 -5 -12 -11 -9 -14 2 -3 11 -1 19 4 8 5 12 11 9 14
-2 3 -11 1 -19 -4z"/>
<path d="M18680 10330 c-8 -5 -12 -11 -9 -14 2 -3 11 -1 19 4 8 5 12 11 9 14
-2 3 -11 1 -19 -4z"/>
<path d="M15266 10313 c-6 -14 -5 -15 5 -6 7 7 10 15 7 18 -3 3 -9 -2 -12 -12z"/>
<path d="M18735 10300 c9 -31 25 -50 25 -29 0 7 -8 23 -16 34 -16 19 -16 19
-9 -5z"/>
<path d="M14751 10278 c2 -2 16 -14 32 -27 15 -14 27 -22 27 -18 0 10 -42 47
-54 47 -5 0 -7 -1 -5 -2z"/>
<path d="M19200 10259 c0 -5 5 -7 10 -4 6 3 10 8 10 11 0 2 -4 4 -10 4 -5 0
-10 -5 -10 -11z"/>
<path d="M15226 10241 c-4 -7 -5 -15 -2 -18 9 -9 19 4 14 18 -4 11 -6 11 -12
0z"/>
<path d="M19158 10233 c-10 -2 -18 -9 -18 -14 0 -6 8 -5 20 1 11 6 20 13 20
15 0 3 -1 4 -2 4 -2 -1 -11 -3 -20 -6z"/>
<path d="M14835 10220 c3 -5 10 -10 16 -10 5 0 9 5 9 10 0 6 -7 10 -16 10 -8
0 -12 -4 -9 -10z"/>
<path d="M15520 10162 c0 -4 10 -13 23 -21 22 -14 22 -14 3 8 -20 22 -26 25
-26 13z"/>
<path d="M18810 10161 c0 -5 5 -13 10 -16 6 -3 10 -2 10 4 0 5 -4 13 -10 16
-5 3 -10 2 -10 -4z"/>
<path d="M18440 10135 c-11 -13 -10 -14 4 -9 9 3 16 10 16 15 0 13 -6 11 -20
-6z"/>
<path d="M18840 10091 c0 -5 5 -13 10 -16 6 -3 10 -2 10 4 0 5 -4 13 -10 16
-5 3 -10 2 -10 -4z"/>
<path d="M15140 10079 c0 -5 5 -7 10 -4 6 3 10 8 10 11 0 2 -4 4 -10 4 -5 0
-10 -5 -10 -11z"/>
<path d="M18360 10070 c-13 -8 -12 -10 3 -10 9 0 17 5 17 10 0 12 -1 12 -20 0z"/>
<path d="M15676 10037 c3 -10 9 -15 12 -12 3 3 0 11 -7 18 -10 9 -11 8 -5 -6z"/>
<path d="M15110 10021 c0 -5 5 -13 10 -16 6 -3 10 -2 10 4 0 5 -4 13 -10 16
-5 3 -10 2 -10 -4z"/>
<path d="M14260 10006 c0 -2 7 -7 16 -10 8 -3 12 -2 9 4 -6 10 -25 14 -25 6z"/>
<path d="M15646 9985 c-9 -26 -7 -32 5 -12 6 10 9 21 6 23 -2 3 -7 -2 -11 -11z"/>
<path d="M14300 9986 c0 -2 7 -7 16 -10 8 -3 12 -2 9 4 -6 10 -25 14 -25 6z"/>
<path d="M19667 9976 c-17 -13 -17 -14 0 -20 10 -4 14 -4 10 0 -4 4 -2 13 4
21 14 17 9 16 -14 -1z"/>
<path d="M15627 9943 c-4 -3 -7 -13 -7 -22 1 -13 3 -13 11 2 11 19 8 33 -4 20z"/>
<path d="M15230 9932 c0 -4 10 -13 23 -21 22 -14 22 -14 3 8 -20 22 -26 25
-26 13z"/>
<path d="M18750 9919 c0 -5 5 -7 10 -4 6 3 10 8 10 11 0 2 -4 4 -10 4 -5 0
-10 -5 -10 -11z"/>
<path d="M14460 9896 c0 -2 7 -7 16 -10 8 -3 12 -2 9 4 -6 10 -25 14 -25 6z"/>
<path d="M15310 9866 c0 -2 7 -9 15 -16 9 -7 15 -8 15 -2 0 5 -7 12 -15 16 -8
3 -15 4 -15 2z"/>
<path d="M18670 9855 c-11 -13 -10 -14 4 -9 9 3 16 10 16 15 0 13 -6 11 -20
-6z"/>
<path d="M16914 9766 c-196 -232 -186 -213 -143 -267 18 -24 38 -49 44 -55 5
-6 21 -26 35 -44 14 -18 33 -42 44 -54 10 -11 37 -45 59 -74 22 -29 43 -51 48
-50 11 4 259 315 259 325 0 8 -95 129 -128 162 -7 8 -38 45 -69 82 -30 38 -58
69 -62 69 -4 0 -43 -42 -87 -94z"/>
<path d="M19465 9850 c-16 -7 -17 -9 -3 -9 9 -1 20 4 23 9 7 11 7 11 -20 0z"/>
<path d="M14540 9846 c0 -2 7 -7 16 -10 8 -3 12 -2 9 4 -6 10 -25 14 -25 6z"/>
<path d="M15910 9830 c0 -5 5 -10 11 -10 5 0 7 5 4 10 -3 6 -8 10 -11 10 -2 0
-4 -4 -4 -10z"/>
<path d="M18070 9825 c-11 -13 -10 -14 4 -9 9 3 16 10 16 15 0 13 -6 11 -20
-6z"/>
<path d="M19405 9820 c-3 -5 -1 -10 4 -10 6 0 11 5 11 10 0 6 -2 10 -4 10 -3
0 -8 -4 -11 -10z"/>
<path d="M15890 9799 c0 -5 5 -7 10 -4 6 3 10 8 10 11 0 2 -4 4 -10 4 -5 0
-10 -5 -10 -11z"/>
<path d="M15411 9781 c13 -11 26 -17 28 -15 5 5 -30 33 -43 34 -4 0 2 -9 15
-19z"/>
<path d="M18575 9780 c-3 -5 -1 -10 4 -10 6 0 11 5 11 10 0 6 -2 10 -4 10 -3
0 -8 -4 -11 -10z"/>
<path d="M18551 9764 c0 -11 3 -14 6 -6 3 7 2 16 -1 19 -3 4 -6 -2 -5 -13z"/>
<path d="M19330 9770 c-8 -5 -12 -11 -10 -14 3 -2 14 2 24 10 22 15 10 19 -14
4z"/>
<path d="M14670 9760 c0 -5 5 -10 10 -10 6 0 10 5 10 10 0 6 -4 10 -10 10 -5
0 -10 -4 -10 -10z"/>
<path d="M15865 9760 c-3 -5 -1 -10 4 -10 6 0 11 5 11 10 0 6 -2 10 -4 10 -3
0 -8 -4 -11 -10z"/>
<path d="M14142 9740 c0 -14 2 -19 5 -12 2 6 2 18 0 25 -3 6 -5 1 -5 -13z"/>
<path d="M17971 9740 c-13 -11 -19 -20 -14 -20 6 0 18 9 28 20 23 25 17 25
-14 0z"/>
<path d="M16027 9729 c7 -7 15 -10 18 -7 3 3 -2 9 -12 12 -14 6 -15 5 -6 -5z"/>
<path d="M19800 9710 c-18 -12 -2 -12 25 0 13 6 15 9 5 9 -8 0 -22 -4 -30 -9z"/>
<path d="M14198 9703 c7 -3 16 -2 19 1 4 3 -2 6 -13 5 -11 0 -14 -3 -6 -6z"/>
<path d="M16090 9672 c6 -13 14 -21 18 -18 3 4 -2 14 -12 24 -18 16 -18 16 -6
-6z"/>
<path d="M17892 9665 c-12 -14 -18 -25 -13 -25 11 0 45 39 39 45 -2 3 -14 -6
-26 -20z"/>
<path d="M19341 9674 c0 -11 3 -14 6 -6 3 7 2 16 -1 19 -3 4 -6 -2 -5 -13z"/>
<path d="M14260 9676 c0 -2 7 -7 16 -10 8 -3 12 -2 9 4 -6 10 -25 14 -25 6z"/>
<path d="M19715 9670 c-3 -5 -2 -10 4 -10 5 0 13 5 16 10 3 6 2 10 -4 10 -5 0
-13 -4 -16 -10z"/>
<path d="M15787 9628 c-8 -29 -4 -32 11 -8 6 10 8 21 3 24 -5 3 -11 -4 -14
-16z"/>
<path d="M14912 9592 c-16 -34 -9 -39 12 -8 8 14 12 27 8 30 -4 2 -13 -7 -20
-22z"/>
<path d="M14404 9595 c22 -17 40 -20 32 -6 -3 5 -16 11 -28 14 -22 6 -22 5 -4
-8z"/>
<path d="M19025 9580 c-3 -5 -2 -10 4 -10 5 0 13 5 16 10 3 6 2 10 -4 10 -5 0
-13 -4 -16 -10z"/>
<path d="M15746 9563 c-6 -14 -5 -15 5 -6 7 7 10 15 7 18 -3 3 -9 -2 -12 -12z"/>
<path d="M18245 9536 c0 -26 3 -32 13 -24 6 6 12 14 12 17 0 4 -6 15 -12 24
-11 15 -13 13 -13 -17z"/>
<path d="M14477 9549 c7 -7 15 -10 18 -7 3 3 -2 9 -12 12 -14 6 -15 5 -6 -5z"/>
<path d="M14612 9530 c0 -14 2 -19 5 -12 2 6 2 18 0 25 -3 6 -5 1 -5 -13z"/>
<path d="M15730 9531 c0 -5 5 -13 10 -16 6 -3 10 -2 10 4 0 5 -4 13 -10 16 -5
3 -10 2 -10 -4z"/>
<path d="M16240 9533 c0 -13 29 -38 35 -31 3 3 -4 13 -15 23 -11 10 -20 13
-20 8z"/>
<path d="M17739 9523 c-13 -16 -12 -17 4 -4 16 13 21 21 13 21 -2 0 -10 -8
-17 -17z"/>
<path d="M19382 9520 c0 -14 2 -19 5 -12 2 6 2 18 0 25 -3 6 -5 1 -5 -13z"/>
<path d="M19470 9520 c-9 -6 -10 -10 -3 -10 6 0 15 5 18 10 8 12 4 12 -15 0z"/>
<path d="M15060 9516 c0 -2 7 -7 16 -10 8 -3 12 -2 9 4 -6 10 -25 14 -25 6z"/>
<path d="M18910 9500 c0 -5 7 -7 15 -4 8 4 15 8 15 10 0 2 -7 4 -15 4 -8 0
-15 -4 -15 -10z"/>
<path d="M14595 9480 c-3 -5 -1 -10 4 -10 6 0 11 5 11 10 0 6 -2 10 -4 10 -3
0 -8 -4 -11 -10z"/>
<path d="M19121 9474 c0 -11 3 -14 6 -6 3 7 2 16 -1 19 -3 4 -6 -2 -5 -13z"/>
<path d="M15815 9450 c10 -11 20 -18 23 -16 5 6 -23 36 -34 36 -4 0 1 -9 11
-20z"/>
<path d="M16246 9443 c-6 -14 -5 -15 5 -6 7 7 10 15 7 18 -3 3 -9 -2 -12 -12z"/>
<path d="M14836 9405 c-9 -26 -7 -32 5 -12 6 10 9 21 6 23 -2 3 -7 -2 -11 -11z"/>
<path d="M19146 9395 c8 -37 14 -45 14 -19 0 10 -5 26 -10 34 -8 11 -9 7 -4
-15z"/>
<path d="M16199 9363 c-13 -16 -12 -17 4 -4 16 13 21 21 13 21 -2 0 -10 -8
-17 -17z"/>
<path d="M17790 9371 c0 -6 4 -13 10 -16 6 -3 7 1 4 9 -7 18 -14 21 -14 7z"/>
<path d="M16177 9333 c-4 -3 -7 -11 -7 -17 0 -6 5 -5 12 2 6 6 9 14 7 17 -3 3
-9 2 -12 -2z"/>
<path d="M14860 9326 c0 -4 7 -14 15 -22 8 -9 15 -11 15 -6 0 5 -7 15 -15 22
-8 7 -15 9 -15 6z"/>
<path d="M15325 9320 c3 -5 8 -10 11 -10 2 0 4 5 4 10 0 6 -5 10 -11 10 -5 0
-7 -4 -4 -10z"/>
<path d="M19114 9305 c-10 -8 -14 -14 -9 -14 6 0 19 6 29 14 11 8 15 15 10 15
-6 0 -19 -7 -30 -15z"/>
<path d="M15980 9300 c0 -5 5 -10 11 -10 5 0 7 5 4 10 -3 6 -8 10 -11 10 -2 0
-4 -4 -4 -10z"/>
<path d="M17970 9269 c0 -5 5 -7 10 -4 6 3 10 8 10 11 0 2 -4 4 -10 4 -5 0
-10 -5 -10 -11z"/>
<path d="M15301 9254 c0 -11 3 -14 6 -6 3 7 2 16 -1 19 -3 4 -6 -2 -5 -13z"/>
<path d="M16030 9263 c0 -12 28 -38 34 -32 2 2 -5 13 -15 23 -11 11 -19 15
-19 9z"/>
<path d="M15015 9215 c17 -14 34 -25 39 -25 6 0 -5 11 -24 25 -43 32 -54 32
-15 0z"/>
<path d="M18972 9219 c-18 -12 -31 -24 -28 -26 2 -3 22 7 43 21 45 31 32 35
-15 5z"/>
<path d="M16075 9210 c3 -5 8 -10 11 -10 2 0 4 5 4 10 0 6 -5 10 -11 10 -5 0
-7 -4 -4 -10z"/>
<path d="M17420 9197 c-12 -19 -11 -21 2 -10 8 7 18 10 21 6 4 -3 7 -1 7 5 0
21 -16 21 -30 -1z"/>
<path d="M16555 9199 c-4 -6 -5 -12 -2 -15 2 -3 7 2 10 11 7 17 1 20 -8 4z"/>
<path d="M15540 9170 c0 -5 5 -10 11 -10 5 0 7 5 4 10 -3 6 -8 10 -11 10 -2 0
-4 -4 -4 -10z"/>
<path d="M18445 9170 c-3 -5 -1 -10 4 -10 6 0 11 5 11 10 0 6 -2 10 -4 10 -3
0 -8 -4 -11 -10z"/>
<path d="M18711 9164 c0 -11 3 -14 6 -6 3 7 2 16 -1 19 -3 4 -6 -2 -5 -13z"/>
<path d="M15100 9156 c0 -2 7 -7 16 -10 8 -3 12 -2 9 4 -6 10 -25 14 -25 6z"/>
<path d="M18872 9145 c-7 -8 -9 -15 -4 -15 5 0 15 7 22 15 16 19 -1 19 -18 0z"/>
<path d="M18371 9119 c-13 -11 -22 -21 -20 -23 2 -3 15 4 28 15 13 11 22 21
20 23 -2 3 -15 -4 -28 -15z"/>
<path d="M16431 9107 c-13 -21 -12 -21 5 -5 10 10 16 20 13 22 -3 3 -11 -5
-18 -17z"/>
<path d="M17556 9117 c3 -10 9 -15 12 -12 3 3 0 11 -7 18 -10 9 -11 8 -5 -6z"/>
<path d="M15620 9110 c0 -6 7 -10 15 -10 8 0 15 2 15 4 0 2 -7 6 -15 10 -8 3
-15 1 -15 -4z"/>
<path d="M17329 9093 c-13 -16 -12 -17 4 -4 9 7 17 15 17 17 0 8 -8 3 -21 -13z"/>
<path d="M18486 9075 c4 -16 11 -34 16 -40 7 -7 8 -1 3 15 -12 40 -26 59 -19
25z"/>
<path d="M18740 9070 c0 -5 5 -10 11 -10 5 0 7 5 4 10 -3 6 -8 10 -11 10 -2 0
-4 -4 -4 -10z"/>
<path d="M15498 9055 c-3 -11 -9 -29 -13 -40 -3 -11 1 -7 10 8 9 16 15 33 12
40 -2 6 -6 3 -9 -8z"/>
<path d="M15710 9040 c0 -5 5 -10 11 -10 5 0 7 5 4 10 -3 6 -8 10 -11 10 -2 0
-4 -4 -4 -10z"/>
<path d="M16385 9039 c-4 -6 -5 -12 -2 -15 2 -3 7 2 10 11 7 17 1 20 -8 4z"/>
<path d="M16346 8975 c-9 -26 -7 -32 5 -12 6 10 9 21 6 23 -2 3 -7 -2 -11 -11z"/>
<path d="M15815 8955 c16 -13 31 -22 34 -20 5 6 -41 44 -54 44 -5 0 3 -11 20
-24z"/>
<path d="M18540 8931 c0 -6 4 -13 10 -16 6 -3 7 1 4 9 -7 18 -14 21 -14 7z"/>
<path d="M16765 8920 c3 -5 8 -10 11 -10 2 0 4 5 4 10 0 6 -5 10 -11 10 -5 0
-7 -4 -4 -10z"/>
<path d="M17606 8915 c-9 -26 -7 -32 5 -12 6 10 9 21 6 23 -2 3 -7 -2 -11 -11z"/>
<path d="M15470 8901 c0 -5 7 -12 16 -15 14 -5 15 -4 4 9 -14 17 -20 19 -20 6z"/>
<path d="M18491 8884 c-20 -23 -9 -25 18 -3 13 11 17 19 10 19 -8 -1 -20 -8
-28 -16z"/>
<path d="M16726 8843 c-6 -14 -5 -15 5 -6 7 7 10 15 7 18 -3 3 -9 -2 -12 -12z"/>
<path d="M16446 8841 c-3 -4 4 -17 17 -27 22 -19 22 -19 4 2 -9 11 -14 24 -10
27 3 4 4 7 0 7 -3 0 -8 -4 -11 -9z"/>
<path d="M18056 8837 c3 -10 9 -15 12 -12 3 3 0 11 -7 18 -10 9 -11 8 -5 -6z"/>
<path d="M15550 8836 c0 -2 7 -7 16 -10 8 -3 12 -2 9 4 -6 10 -25 14 -25 6z"/>
<path d="M16526 8745 c4 -8 11 -15 16 -15 6 0 5 6 -2 15 -7 8 -14 15 -16 15
-2 0 -1 -7 2 -15z"/>
<path d="M18316 8748 c3 -5 10 -6 15 -3 13 9 11 12 -6 12 -8 0 -12 -4 -9 -9z"/>
<path d="M17340 8720 c6 -11 12 -20 14 -20 2 0 2 9 -1 20 -3 11 -9 20 -15 20
-5 0 -4 -9 2 -20z"/>
<path d="M18100 8733 c0 -4 5 -15 10 -23 8 -13 10 -13 10 2 0 9 -4 20 -10 23
-5 3 -10 3 -10 -2z"/>
<path d="M15715 8710 c3 -5 8 -10 11 -10 2 0 4 5 4 10 0 6 -5 10 -11 10 -5 0
-7 -4 -4 -10z"/>
<path d="M15851 8684 c0 -11 3 -14 6 -6 3 7 2 16 -1 19 -3 4 -6 -2 -5 -13z"/>
<path d="M15876 8685 c-9 -26 -7 -32 5 -12 6 10 9 21 6 23 -2 3 -7 -2 -11 -11z"/>
<path d="M16601 8663 c7 -12 15 -20 18 -17 3 2 -3 12 -13 22 -17 16 -18 16 -5
-5z"/>
<path d="M17820 8650 c-9 -6 -10 -10 -3 -10 6 0 15 5 18 10 8 12 4 12 -15 0z"/>
<path d="M16175 8640 c3 -5 8 -10 11 -10 2 0 4 5 4 10 0 6 -5 10 -11 10 -5 0
-7 -4 -4 -10z"/>
<path d="M18170 8629 c0 -5 5 -7 10 -4 6 3 10 8 10 11 0 2 -4 4 -10 4 -5 0
-10 -5 -10 -11z"/>
<path d="M17040 8623 c0 -6 8 -17 18 -24 16 -13 16 -13 2 6 -8 11 -16 22 -17
24 -2 2 -3 0 -3 -6z"/>
<path d="M16146 8605 c-9 -26 -7 -32 5 -12 6 10 9 21 6 23 -2 3 -7 -2 -11 -11z"/>
<path d="M16930 8589 c0 -5 5 -7 10 -4 6 3 10 8 10 11 0 2 -4 4 -10 4 -5 0
-10 -5 -10 -11z"/>
<path d="M17742 8556 c7 -8 15 -12 17 -11 5 6 -10 25 -20 25 -5 0 -4 -6 3 -14z"/>
<path d="M16120 8540 c-6 -11 -7 -20 -2 -20 6 0 12 9 15 20 3 11 3 20 1 20 -2
0 -8 -9 -14 -20z"/>
<path d="M17710 8541 c0 -10 19 -25 25 -20 1 2 -3 10 -11 17 -8 7 -14 8 -14 3z"/>
<path d="M16096 8485 c-9 -26 -7 -32 5 -12 6 10 9 21 6 23 -2 3 -7 -2 -11 -11z"/>
<path d="M16850 8469 c0 -5 5 -7 10 -4 6 3 10 8 10 11 0 2 -4 4 -10 4 -5 0
-10 -5 -10 -11z"/>
<path d="M16071 8424 c0 -11 3 -14 6 -6 3 7 2 16 -1 19 -3 4 -6 -2 -5 -13z"/>
<path d="M17170 8406 c0 -9 5 -16 10 -16 6 0 10 4 10 9 0 6 -4 13 -10 16 -5 3
-10 -1 -10 -9z"/>
<path d="M17577 8403 c-4 -3 -7 -11 -7 -17 0 -6 5 -5 12 2 6 6 9 14 7 17 -3 3
-9 2 -12 -2z"/>
<path d="M16145 8350 c3 -5 8 -10 11 -10 2 0 4 5 4 10 0 6 -5 10 -11 10 -5 0
-7 -4 -4 -10z"/>
<path d="M17840 8349 c0 -5 5 -7 10 -4 6 3 10 8 10 11 0 2 -4 4 -10 4 -5 0
-10 -5 -10 -11z"/>
<path d="M17561 8270 c14 -31 19 -36 19 -24 0 6 -7 19 -16 30 -14 18 -14 18
-3 -6z"/>
<path d="M17581 8220 c-1 -23 15 -45 23 -31 4 6 3 11 -3 11 -5 0 -12 8 -14 18
-3 12 -5 13 -6 2z"/>
<path d="M17655 8170 c-3 -6 1 -7 9 -4 18 7 21 14 7 14 -6 0 -13 -4 -16 -10z"/>
<path d="M4769 6366 c-101 -69 -104 -206 -6 -277 114 -83 286 20 264 157 -20
119 -162 185 -258 120z"/>
<path d="M5445 6374 c-37 -18 -80 -78 -88 -121 -10 -53 3 -91 47 -140 38 -42
47 -46 97 -51 107 -8 179 52 187 156 3 51 0 62 -26 98 -16 22 -46 48 -65 57
-43 21 -112 21 -152 1z"/>
<path d="M27332 6360 c-52 -37 -72 -76 -72 -137 0 -56 23 -99 73 -137 27 -21
45 -26 89 -26 97 0 168 69 168 165 0 133 -152 212 -258 135z"/>
<path d="M28007 6369 c-149 -78 -91 -309 78 -309 113 0 195 102 166 206 -29
104 -148 154 -244 103z"/>
<path d="M2338 5863 c-9 -10 -25 -75 -37 -148 -13 -71 -36 -202 -52 -290 -16
-88 -34 -187 -39 -220 -9 -64 -93 -537 -109 -620 -6 -27 -22 -117 -36 -200
-14 -82 -32 -181 -40 -220 -29 -141 -29 -161 -4 -179 30 -20 250 -23 289 -3
31 16 27 -7 121 622 54 359 64 416 74 413 9 -3 36 -58 120 -248 18 -41 46
-104 63 -140 16 -36 48 -108 72 -160 23 -52 55 -122 70 -156 16 -33 54 -119
86 -190 76 -173 77 -174 129 -174 48 0 75 8 75 21 0 5 32 80 71 167 40 86 86
191 104 232 91 211 287 646 295 654 5 5 11 -8 15 -30 3 -22 8 -52 11 -69 3
-16 9 -55 15 -85 5 -30 16 -102 25 -160 8 -58 35 -232 60 -387 24 -156 44
-287 44 -291 0 -22 59 -32 179 -32 184 0 175 -21 122 283 -23 133 -56 316 -72
407 -17 91 -33 181 -36 200 -3 19 -18 108 -34 197 -16 89 -43 242 -59 340 -17
98 -35 201 -40 228 -5 28 -17 91 -26 140 -9 50 -21 96 -26 103 -6 6 -30 12
-54 12 -34 0 -47 -5 -58 -22 -15 -24 -246 -514 -246 -523 0 -1 -33 -72 -73
-156 -40 -85 -105 -221 -143 -303 -38 -82 -85 -184 -105 -225 l-36 -76 -72
149 c-39 82 -71 150 -71 151 0 2 -22 49 -49 106 -26 57 -63 136 -81 174 -219
471 -325 693 -338 708 -9 10 -29 17 -52 17 -23 0 -43 -7 -52 -17z"/>
<path d="M15440 5870 c-103 -14 -195 -42 -295 -90 -252 -121 -449 -364 -517
-637 -30 -121 -30 -329 0 -458 68 -298 302 -568 587 -675 112 -42 160 -50 305
-56 167 -7 252 5 391 55 240 88 473 319 558 553 45 123 55 188 55 343 -1 162
-13 240 -59 361 -73 193 -247 391 -438 496 -171 94 -391 134 -587 108z m261
-354 c197 -42 389 -215 451 -406 32 -98 36 -264 10 -361 -35 -122 -80 -197
-178 -289 -120 -112 -246 -162 -414 -163 -185 -2 -308 49 -442 184 -49 48 -88
92 -88 98 0 6 -10 28 -23 49 -46 73 -62 147 -62 282 0 92 5 141 18 185 32 106
114 220 227 315 118 101 322 144 501 106z"/>
<path d="M20467 5862 c-16 -17 -17 -97 -17 -939 0 -898 0 -920 19 -937 17 -16
37 -18 154 -14 94 2 139 7 150 17 15 12 17 67 17 603 l0 590 33 -33 c17 -19
75 -81 127 -139 52 -58 97 -107 100 -110 3 -3 25 -28 50 -55 25 -28 92 -102
150 -165 58 -63 125 -137 150 -165 25 -27 47 -52 50 -55 3 -3 52 -57 110 -120
58 -63 107 -117 110 -120 3 -3 43 -48 90 -100 166 -185 148 -170 201 -170 38
0 51 4 59 19 7 13 10 323 10 934 0 873 -1 915 -18 930 -15 14 -42 17 -160 17
-134 0 -142 -1 -156 -22 -14 -20 -16 -91 -16 -575 0 -304 -2 -553 -5 -553 -3
0 -37 35 -77 77 -40 42 -108 114 -150 158 -43 45 -87 93 -99 106 -11 13 -57
62 -102 109 -79 83 -318 336 -462 490 -215 229 -226 240 -265 240 -23 0 -43
-7 -53 -18z"/>
<path d="M27719 5863 c-9 -10 -25 -38 -36 -63 -12 -25 -38 -81 -58 -125 -20
-44 -61 -132 -90 -195 -72 -156 -111 -240 -155 -335 -21 -44 -74 -159 -118
-255 -44 -96 -100 -218 -125 -270 -24 -52 -68 -147 -97 -210 -28 -63 -65 -144
-82 -180 -17 -36 -44 -93 -59 -127 -57 -122 -41 -136 153 -131 112 3 130 5
147 23 11 11 45 76 75 145 31 69 62 136 69 150 l13 25 402 0 403 0 69 -149
c37 -82 78 -158 90 -170 18 -18 35 -21 127 -24 58 -2 125 -1 149 3 75 11 72
27 -51 290 -23 50 -64 137 -90 195 -26 58 -67 147 -91 198 -24 52 -44 95 -44
98 0 2 -21 48 -46 101 -26 54 -68 145 -94 203 -26 58 -56 125 -68 150 -37 93
-54 115 -91 118 -24 2 -40 -3 -50 -15z m139 -868 c44 -99 100 -223 125 -277 25
-53 43 -99 40 -102 -10 -10 -533 -7 -533 3 0 5 17 47 39 93 21 45 55 121 76
168 40 90 62 141 115 258 29 63 35 70 45 55 7 -10 48 -99 93 -198z"/>
<path d="M29600 5871 c-277 -41 -515 -186 -665 -408 -22 -32 -42 -60 -45 -63
-11 -10 -68 -137 -83 -185 -33 -105 -42 -172 -41 -315 1 -181 18 -261 88 -410
85 -184 255 -352 448 -445 154 -74 224 -89 423 -89 150 0 183 3 282 27 200 48
382 123 397 163 3 9 6 175 6 369 0 308 -2 356 -16 369 -13 14 -54 16 -293 16
-202 0 -280 -3 -289 -12 -15 -15 -17 -255 -2 -278 7 -12 33 -15 130 -15 l120
0 0 -116 0 -117 -27 -11 c-112 -45 -313 -65 -426 -41 -164 34 -328 166 -411
330 -53 104 -73 311 -41 434 86 328 418 528 740 444 56 -14 162 -68 219 -111
26 -21 56 -37 66 -37 24 0 220 196 220 221 0 27 -171 152 -271 197 -156 71
-376 105 -529 83z"/>
<path d="M4466 5834 c-14 -14 -16 -85 -16 -629 0 -738 0 -741 111 -915 140
-220 364 -340 633 -340 203 0 363 61 506 194 84 78 125 133 166 220 70 149 68
124 72 816 2 475 0 630 -9 647 -12 22 -17 23 -164 23 -104 0 -155 -4 -163 -12
-9 -9 -12 -150 -12 -572 0 -315 -5 -591 -10 -629 -19 -133 -97 -247 -205 -301
-75 -39 -194 -54 -269 -36 -128 30 -229 117 -277 237 l-24 58 -3 614 c-3 565
-4 615 -20 627 -27 21 -295 19 -316 -2z"/>
<path d="M6426 5834 c-14 -14 -16 -111 -16 -924 l0 -910 24 -15 c20 -14 86
-15 525 -13 484 3 503 4 517 22 16 23 20 251 4 276 -8 13 -64 16 -367 20
l-358 5 -5 768 c-4 668 -7 769 -20 777 -8 5 -77 10 -152 10 -111 0 -140 -3
-152 -16z"/>
<path d="M7777 5832 c-16 -17 -17 -95 -17 -920 0 -893 0 -902 20 -922 20 -20
30 -20 531 -18 440 3 511 5 519 18 5 8 10 76 10 151 0 116 -2 138 -16 143 -9
3 -173 6 -365 6 l-349 0 0 763 c0 727 -1 765 -18 780 -15 14 -42 17 -159 17
-123 0 -142 -2 -156 -18z"/>
<path d="M9138 5836 c-17 -12 -18 -68 -18 -924 l0 -911 22 -16 c20 -13 88 -15
568 -15 414 1 551 4 570 13 24 12 25 15 28 140 1 76 -2 135 -8 147 -10 19 -24
20 -423 22 l-412 3 -3 231 -3 231 47 7 c26 3 183 6 350 6 290 0 304 1 314 19
5 11 10 76 10 145 0 118 -1 126 -22 140 -19 14 -71 16 -360 16 l-338 0 0 220
0 220 408 0 c383 0 410 1 425 18 24 27 25 263 1 286 -14 14 -80 16 -577 16
-452 -1 -565 -3 -579 -14z"/>
<path d="M10712 5838 c-9 -9 -12 -209 -12 -924 l0 -913 22 -15 c28 -20 252
-23 293 -4 l25 11 0 359 0 358 153 0 152 0 182 -364 182 -363 38 -7 c21 -3 94
-6 163 -6 98 0 131 3 148 16 29 20 28 33 -9 101 -40 73 -153 284 -209 388
-101 189 -113 210 -121 220 -20 20 -8 43 33 61 23 10 68 37 98 60 184 135 273
330 242 532 -16 108 -27 139 -69 210 -75 122 -184 213 -314 260 l-74 27 -455
3 c-353 2 -458 0 -468 -10z m886 -334 c60 -30 126 -100 143 -151 7 -21 9 -66
7 -109 -4 -63 -10 -81 -38 -123 -39 -57 -108 -106 -170 -121 -28 -7 -130 -10
-265 -8 l-220 3 -5 268 -5 267 251 0 c249 0 250 0 302 -26z"/>
<path d="M13097 5832 c-16 -17 -17 -96 -17 -925 l0 -907 24 -16 c22 -14 69
-15 413 -11 430 5 435 6 565 74 134 70 239 201 268 334 20 90 9 212 -25 284
-39 80 -140 179 -233 227 l-72 37 55 37 c75 49 156 141 196 222 31 63 34 74
34 167 0 80 -5 112 -23 160 -29 77 -82 147 -154 205 -73 59 -127 85 -223 110
-71 18 -112 20 -435 20 -333 0 -358 -1 -373 -18z m723 -319 c38 -17 88 -69
106 -110 11 -28 15 -59 12 -113 -5 -81 -20 -119 -64 -164 -58 -58 -73 -61
-269 -61 l-180 0 -3 225 c-1 123 -1 229 2 235 5 14 363 3 396 -12z m20 -769
c94 -43 150 -119 150 -203 0 -109 -45 -186 -134 -227 -48 -22 -62 -24 -243
-24 l-193 0 0 241 0 241 188 -4 c163 -3 193 -6 232 -24z"/>
<path d="M16896 5828 c-14 -20 -16 -123 -16 -910 0 -634 3 -894 11 -912 6 -13
21 -27 33 -30 35 -10 635 -6 731 4 235 25 410 106 570 265 130 129 221 287
262 454 26 104 23 332 -5 444 -63 253 -253 488 -491 608 -179 90 -245 99 -707
99 l-373 0 -15 -22z m841 -330 c180 -64 301 -183 368 -363 37 -96 45 -257 20
-371 -48 -221 -223 -398 -441 -449 -46 -11 -121 -15 -260 -15 l-194 0 0 616 0
616 218 -4 c202 -4 222 -6 289 -30z"/>
<path d="M18886 5834 c-14 -14 -16 -111 -16 -922 0 -554 4 -913 10 -922 8 -13
83 -15 578 -15 468 0 572 2 585 14 14 11 17 34 17 140 0 69 -5 133 -10 141 -8
13 -70 16 -422 20 l-413 5 -3 231 -2 231 52 6 c29 4 187 7 350 7 284 0 298 1
308 19 5 11 10 74 10 140 0 176 35 161 -380 161 l-340 0 0 220 0 220 408 0
c383 0 410 1 425 18 14 15 17 41 17 144 0 108 -2 127 -18 141 -17 15 -72 17
-580 17 -496 0 -562 -2 -576 -16z"/>
<path d="M22536 5828 c-14 -20 -16 -124 -16 -920 0 -896 0 -898 21 -919 20
-20 26 -21 412 -16 411 4 431 6 532 53 101 47 207 137 253 214 61 103 81 279
45 386 -34 103 -134 208 -253 268 l-69 34 49 32 c54 35 123 103 169 167 44 61
71 149 71 233 0 216 -165 410 -399 469 -78 19 -112 21 -442 21 l-358 0 -15
-22z m734 -317 c158 -88 152 -339 -11 -427 -29 -17 -58 -19 -211 -19 l-178 0
-1 225 c0 124 0 230 0 235 1 16 370 3 401 -14z m10 -767 c104 -48 150 -115
150 -216 0 -79 -24 -133 -79 -180 -61 -52 -100 -59 -305 -56 l-180 3 1 33 c1
17 2 125 2 238 l1 206 183 -4 c158 -3 188 -6 227 -24z"/>
<path d="M24196 5834 c-14 -14 -16 -111 -16 -923 0 -833 1 -910 17 -922 13
-12 117 -14 585 -14 495 0 570 2 578 15 13 20 13 260 0 280 -8 13 -70 16 -422
20 l-413 5 -3 231 -2 231 31 7 c17 3 172 6 345 6 271 0 315 2 328 16 13 12 16
40 16 144 0 122 -1 130 -22 144 -19 14 -71 16 -360 16 l-337 0 0 220 0 220
409 0 c358 0 411 2 424 16 13 12 16 40 16 144 0 104 -3 132 -16 144 -14 14
-80 16 -579 16 -499 0 -565 -2 -579 -16z"/>
<path d="M25778 5839 c-17 -9 -18 -64 -18 -928 l0 -918 25 -11 c19 -9 166 -12
518 -12 430 0 495 2 515 16 21 14 22 22 22 143 0 86 -4 133 -12 144 -12 15
-48 17 -368 19 l-355 3 -3 764 c-1 544 -5 768 -13 778 -14 16 -284 18 -311 2z"/>
<path d="M30826 5834 c-14 -14 -16 -111 -16 -924 l0 -909 22 -15 c20 -14 91
-16 573 -16 482 0 553 2 573 16 21 14 22 22 22 142 0 70 -5 134 -10 142 -8 13
-70 16 -422 20 l-413 5 -3 231 -2 232 22 6 c13 3 167 6 343 6 184 0 326 4 335
10 21 13 22 268 1 293 -12 15 -50 17 -357 17 l-344 0 0 220 0 220 408 0 c383
0 410 1 425 18 14 15 17 41 17 144 0 108 -2 127 -18 141 -17 15 -72 17 -580
17 -496 0 -562 -2 -576 -16z"/>
<path d="M15005 3246 c-44 -19 -117 -105 -138 -162 -20 -56 -22 -125 -6 -189
11 -43 11 -44 -49 -132 -137 -199 -445 -679 -446 -693 -1 -18 30 -25 37 -8 2
7 83 132 179 278 96 146 203 309 237 362 35 54 67 95 72 92 5 -3 19 -24 30
-47 12 -23 41 -74 64 -113 82 -135 119 -223 123 -296 5 -74 -10 -133 -38 -148
-9 -5 -92 -16 -183 -24 -177 -15 -222 -29 -233 -73 -10 -37 0 -57 36 -76 44
-23 169 -17 246 11 62 23 138 74 160 106 8 14 33 29 60 36 24 7 69 30 99 51
l55 38 0 -47 c0 -60 29 -108 77 -128 101 -43 240 38 413 240 40 47 75 84 77
83 2 -2 -11 -37 -28 -78 -39 -94 -61 -193 -49 -224 20 -54 77 -48 153 15 48
39 174 179 237 263 23 32 44 56 46 55 1 -2 -9 -41 -22 -88 -49 -164 -21 -270
69 -270 54 0 95 22 158 84 67 65 149 166 149 183 0 34 -42 4 -108 -77 -76 -94
-149 -150 -191 -150 -48 0 -56 13 -55 92 1 77 14 131 71 291 l35 97 109 0
c102 0 109 1 109 20 0 19 -7 20 -96 20 -114 0 -111 -14 -40 158 26 61 44 117
41 122 -13 22 -27 7 -57 -57 -17 -38 -46 -103 -66 -145 l-35 -78 -69 0 c-61 0
-68 -2 -68 -20 0 -16 8 -19 56 -22 l57 -3 -74 -110 c-41 -60 -84 -121 -96
-135 -12 -14 -31 -36 -43 -50 -91 -106 -169 -177 -202 -185 -27 -7 -28 -6 -28
34 0 51 47 176 124 330 42 83 54 117 46 125 -13 13 -35 -9 -201 -204 -184
-214 -257 -272 -354 -278 -82 -5 -100 14 -99 105 1 41 6 69 15 77 8 7 43 21
79 31 110 31 174 70 228 139 25 32 30 92 9 120 -16 22 -85 32 -128 17 -66 -23
-165 -133 -210 -235 -21 -48 -64 -91 -131 -130 -72 -41 -72 -41 -69 45 4 112
-21 183 -131 369 -24 41 -57 101 -73 133 l-28 58 56 82 c31 45 76 111 101 147
60 86 63 140 9 169 -27 14 -40 14 -78 -3z m64 -35 c9 -6 12 -19 8 -38 -7 -37
-157 -251 -176 -252 -11 -1 -13 14 -9 75 5 67 9 81 44 131 21 31 55 64 74 75
40 21 40 21 59 9z m575 -637 c29 -11 19 -60 -21 -100 -57 -57 -223 -127 -223
-94 0 15 79 127 106 152 45 40 100 57 138 42z m-619 -444 c8 -13 -83 -57 -157
-76 -62 -16 -152 -14 -170 4 -12 12 0 39 20 47 9 4 80 13 157 20 77 7 141 13
142 14 1 0 5 -3 8 -9z"/>
<path d="M17398 3184 c-38 -19 -68 -41 -68 -49 0 -19 23 -19 61 1 17 8 33 13
36 10 4 -4 -71 -199 -112 -291 -8 -16 -36 -86 -63 -155 -27 -69 -82 -204 -122
-300 -101 -244 -130 -322 -124 -332 8 -12 31 -10 37 5 3 6 31 75 62 152 116
285 209 514 265 655 31 80 73 185 93 234 50 121 44 127 -65 70z"/>
<path d="M18651 3180 c-111 -88 -259 -250 -350 -383 -48 -71 -115 -211 -146
-307 -39 -118 -41 -257 -6 -313 33 -53 68 -86 119 -108 49 -21 131 -25 183 -8
95 32 197 149 239 274 18 53 21 83 18 158 -3 84 -6 97 -35 143 -48 74 -98 99
-198 98 -67 0 -89 -5 -133 -28 -30 -15 -56 -26 -58 -23 -8 7 115 184 183 262
69 78 165 168 231 214 32 22 39 50 16 58 -6 2 -35 -15 -63 -37z m-67 -509 c84
-52 111 -201 62 -337 -60 -164 -172 -254 -301 -241 -102 10 -158 63 -177 166
-10 51 -9 74 6 143 25 117 54 177 110 223 92 75 221 95 300 46z"/>
<path d="M19253 3198 c-11 -13 -46 -68 -78 -123 -32 -55 -89 -151 -127 -213
-37 -61 -68 -119 -68 -128 0 -19 12 -17 115 20 220 80 372 -32 335 -246 -25
-143 -149 -315 -265 -368 -178 -80 -376 18 -313 155 9 20 9 28 -1 38 -9 9 -16
7 -31 -13 -60 -80 -8 -192 109 -234 73 -26 175 -18 255 19 52 24 147 106 193
167 29 39 75 144 89 205 36 154 -23 290 -145 331 -47 16 -148 15 -206 -3 -27
-8 -51 -13 -53 -11 -3 3 3 120 191 329 l29 47 167 0 c91 0 172 4 180 9 8 5
11 16 8 25 -6 14 -30 16 -185 16 -172 0 -179 -1 -199 -22z"/>
<path d="M17927 3200 c-143 -36 -255 -182 -287 -376 -12 -70 8 -161 45 -209
55 -73 168 -95 255 -50 17 9 34 15 36 13 5 -5 -98 -151 -155 -218 -78 -93
-104 -122 -170 -192 -58 -62 -69 -88 -37 -88 13 0 180 180 270 292 129 159
259 390 286 507 7 30 10 85 8 128 -4 61 -10 82 -34 116 -47 68 -132 98 -217
77z m141 -58 c52 -34 67 -70 67 -167 -1 -75 -6 -102 -29 -160 -41 -99 -90
-161 -166 -208 -48 -30 -147 -31 -186 -1 -60 45 -69 67 -69 177 0 96 2 106 34
171 36 75 94 144 147 176 62 39 152 44 202 12z"/>
<path d="M16101 2954 c-25 -18 -25 -51 1 -68 13 -8 22 -6 37 8 43 39 8 92 -38
60z"/>
</g>
</svg>
