<?xml version="1.0" encoding="UTF-8" standalone="yes"?>
<!DOCTYPE svg PUBLIC "-//W3C//DTD SVG 1.1//EN" "http://www.w3.org/Graphics/SVG/1.1/DTD/svg11.dtd">

<svg width="350" height="500" viewBox="0 0 350 500" xmlns="http://www.w3.org/2000/svg" xmlns:xlink="http://www.w3.org/1999/xlink" version="1.1" baseProfile="full">
    <g transform="scale(1,-1) translate(0,-500)">
        <path d="M 1.000000 1.000000 L 351.000000 1.000000 C 351.000000 1.000000 351.000000 1.000000 351.000000 1.000000 L 351.000000 501.000000 C 351.000000 501.000000 351.000000 501.000000 351.000000 501.000000 L 1.000000 501.000000 C 1.000000 501.000000 1.000000 501.000000 1.000000 501.000000 L 1.000000 1.000000 C 1.000000 1.000000 1.000000 1.000000 1.000000 1.000000 Z" transform="scale(1.000000,1.000000) translate(-1.000000,-1.000000)" fill="#ffffff" opacity="1.000000"></path>
        <path d="M 1.000000 14.109028 L 7.947200 14.109028 L 7.947200 12.712510 L 2.683716 12.712510 L 2.683716 8.426317 L 7.545667 8.426317 L 7.545667 7.048855 L 2.683716 7.048855 L 2.683716 1.212335 L 1.000000 1.212335 L 1.000000 14.109029 Z M 10.495230 14.109028 L 12.178946 14.109028 L 12.178946 2.606131 L 17.690155 2.606131 L 17.690155 1.210974 L 10.495230 1.210974 L 10.495230 14.109028 Z M 30.035594 7.793393 C 30.035594 3.372447 27.336477 1.000000 24.045268 1.000000 C 20.620668 1.000000 18.246860 3.659645 18.246860 7.564723 C 18.246860 11.658997 20.773115 14.337698 24.218131 14.337698 C 27.758426 14.337698 30.035594 11.638580 30.035594 7.793392 Z M 20.006800 7.600112 C 20.006800 4.827494 21.499958 2.358406 24.140547 2.358406 C 26.781136 2.358406 28.274294 4.788021 28.274294 7.714447 C 28.274294 10.299230 26.933582 12.980653 24.159602 12.980653 C 21.385622 12.982014 20.006799 10.414926 20.006799 7.600112 Z M 43.393703 7.793393 C 43.393703 3.372447 40.694586 1.000000 37.403377 1.000000 C 33.978777 1.000000 31.604969 3.659645 31.604969 7.564723 C 31.604969 11.658997 34.131223 14.337698 37.576240 14.337698 C 41.117896 14.337698 43.393703 11.638580 43.393703 7.793392 Z M 33.366270 7.600112 C 33.366270 4.827494 34.858066 2.358406 37.500017 2.358406 C 40.141967 2.358406 41.633764 4.788021 41.633764 7.714447 C 41.633764 10.299230 40.294413 12.980653 37.519072 12.980653 C 34.745092 12.982014 33.366269 10.414926 33.366269 7.600112 Z M 46.114600 13.936166 C 46.272923 13.962814 46.590406 14.010870 46.749523 14.032272 C 46.908640 14.053674 47.227538 14.091213 47.387276 14.107346 C 47.547013 14.123478 47.866977 14.150460 48.027160 14.161305 C 48.187344 14.172151 48.508025 14.188545 48.668479 14.194092 C 48.828933 14.199639 49.149980 14.205428 49.310530 14.205670 C 51.090886 14.205670 52.257373 13.861304 53.041383 13.152156 C 53.671586 12.580482 54.056785 11.698471 54.056785 10.685791 C 54.056785 9.003437 52.985577 7.873700 51.646226 7.410916 L 51.646226 7.353749 C 52.622155 7.010745 53.214246 6.091983 53.520500 4.752632 C 53.943811 2.953220 54.248704 1.711871 54.514124 1.212337 L 52.792297 1.212337 C 52.584044 1.593453 52.294124 2.686439 51.951119 4.292571 C 51.568642 6.074288 50.858133 6.743963 49.347280 6.799770 L 47.777899 6.799770 L 47.777899 1.213698 L 46.113239 1.213698 L 46.113239 13.936166 Z M 47.779260 8.060175 L 49.483393 8.060175 C 51.263749 8.060175 52.392125 9.036104 52.392125 10.510206 C 52.392125 12.176227 51.186165 12.903070 49.426226 12.903070 C 48.621799 12.903070 48.066459 12.845902 47.779260 12.771040 L 47.779260 8.060175 Z M 59.034438 14.109028 L 59.034438 1.209613 L 57.352083 1.209613 L 57.352083 14.109028 L 59.034438 14.109028 Z M 62.501228 1.210977 L 62.501228 14.111753 L 64.338752 14.111753 L 68.453443 7.585141 C 69.389900 6.072928 70.157576 4.714521 70.749667 3.392866 L 70.806835 3.411922 C 70.654388 5.135110 70.614915 6.704491 70.614915 8.713517 L 70.614915 14.110392 L 72.182935 14.110392 L 72.182935 1.210976 L 70.500581 1.210976 L 66.404945 7.756643 C 65.505239 9.189912 64.645006 10.665375 64.012081 12.061893 L 63.954914 12.041476 C 64.050193 10.414927 64.069248 8.865963 64.069248 6.722186 L 64.069248 1.210977 L 62.501228 1.210977 Z M 85.485247 1.784009 C 84.737987 1.498172 83.246190 1.076222 81.505307 1.076222 C 79.552087 1.076222 77.945956 1.573034 76.682828 2.780355 C 75.573509 3.851563 74.883417 5.572030 74.883417 7.583778 C 74.883417 11.427604 77.544423 14.242419 81.870089 14.242419 C 83.361886 14.242419 84.548790 13.918470 85.104130 13.648967 L 84.682180 12.289199 C 83.993449 12.613148 83.130494 12.844540 81.829255 12.844540 C 78.690493 12.844540 76.641994 10.892681 76.641994 7.657279 C 76.641994 4.385126 78.595214 2.452323 81.618280 2.452323 C 82.711266 2.452323 83.457165 2.603409 83.838281 2.796689 L 83.838281 6.644599 L 81.235803 6.644599 L 81.235803 7.983950 L 85.483885 7.983950 L 85.483885 1.784009 L 85.485246 1.784009 Z M 94.370683 3.237695 C 95.115220 2.757217 96.186428 2.396518 97.335221 2.396518 C 99.039354 2.396518 100.034339 3.296224 100.034339 4.596102 C 100.034339 5.784367 99.345608 6.492154 97.603363 7.142773 C 95.499059 7.907727 94.197820 9.017047 94.197820 10.816459 C 94.197820 12.826846 95.862480 14.318643 98.369679 14.318643 C 99.672279 14.318643 100.648208 14.011028 101.203548 13.688440 L 100.744848 12.328673 C 100.343315 12.579120 99.481721 12.941180 98.313872 12.941180 C 96.553933 12.941180 95.884258 11.887667 95.884258 11.007017 C 95.884258 9.802418 96.669629 9.210327 98.448624 8.520235 C 100.629152 7.679058 101.720777 6.625544 101.720777 4.732214 C 101.720777 2.742244 100.267092 1.001361 97.222247 1.001361 C 95.978176 1.001361 94.619769 1.382477 93.931038 1.842539 L 94.370683 3.237695 Z M 107.080918 1.210977 L 107.080918 6.684075 L 102.983922 14.111753 L 104.897668 14.111753 L 106.714775 10.549679 C 107.195253 9.573750 107.595425 8.789740 107.996958 7.891395 L 108.036431 7.891395 C 108.379435 8.731212 108.839496 9.573750 109.336308 10.549679 L 111.192888 14.111753 L 113.067161 14.111753 L 108.761912 6.705853 L 108.761912 1.212338 L 107.080918 1.212338 Z M 114.313949 3.237695 C 115.059847 2.757217 116.131056 2.396518 117.279848 2.396518 C 118.985342 2.396518 119.978966 3.296224 119.978966 4.596102 C 119.978966 5.784367 119.290235 6.492154 117.547990 7.142773 C 115.443686 7.907727 114.142447 9.017047 114.142447 10.816459 C 114.142447 12.826846 115.808468 14.318643 118.314306 14.318643 C 119.616906 14.318643 120.592835 14.011028 121.148175 13.688440 L 120.688114 12.328673 C 120.286581 12.579120 119.424986 12.941180 118.258499 12.941180 C 116.498560 12.941180 115.828885 11.887667 115.828885 11.007017 C 115.828885 9.802418 116.612895 9.210327 118.393251 8.520235 C 120.575140 7.679058 121.664043 6.625544 121.664043 4.732214 C 121.664043 2.742244 120.210358 1.001361 117.168236 1.001361 C 115.924164 1.001361 114.565758 1.382477 113.874304 1.842539 L 114.313949 3.237695 Z M 126.600846 12.692093 L 122.676713 12.692093 L 122.676713 14.109028 L 132.227752 14.109028 L 132.227752 12.692093 L 128.284563 12.692093 L 128.284563 1.209613 L 126.602208 1.209613 L 126.602208 12.692093 Z M 140.802869 7.257112 L 135.807527 7.257112 L 135.807527 2.604775 L 141.394960 2.604775 L 141.394960 1.209618 L 134.121089 1.209618 L 134.121089 14.109033 L 141.107762 14.109033 L 141.107762 12.712515 L 135.804805 12.712515 L 135.804805 8.635936 L 140.800147 8.635936 L 140.802869 7.257112 Z M 154.890557 6.874627 C 154.792556 8.671316 154.680944 10.854567 154.680944 12.443004 L 154.641471 12.443004 C 154.566695 12.196003 154.414564 11.702791 154.337211 11.456585 C 154.259859 11.210379 154.102584 10.718782 154.022664 10.473398 C 153.942744 10.228014 153.780342 9.738087 153.697863 9.493551 C 153.615384 9.249015 153.447874 8.760811 153.362845 8.517150 C 153.277816 8.273489 153.105214 7.787062 153.017645 7.544302 L 150.737754 1.284472 L 149.474627 1.284472 L 147.367600 7.429967 C 146.756454 9.267491 146.259642 10.911734 145.894859 12.443004 L 145.856748 12.443004 C 145.848879 12.157671 145.831308 11.587060 145.821605 11.301784 C 145.811902 11.016508 145.790661 10.446022 145.779123 10.160815 C 145.767585 9.875607 145.742675 9.305269 145.729303 9.020142 C 145.715932 8.735014 145.687354 8.164848 145.672149 7.879813 C 145.656943 7.594777 145.624699 7.024807 145.607661 6.739875 L 145.261934 1.210971 L 143.674859 1.210971 L 144.573203 14.110387 L 146.697925 14.110387 L 148.898870 7.873696 C 149.435154 6.283898 149.855743 4.866963 150.198748 3.527613 L 150.238220 3.527613 C 150.583947 4.830213 151.041286 6.247147 151.615682 7.873696 L 153.913267 14.110387 L 156.037989 14.110387 L 156.841055 1.210971 L 155.195450 1.210971 L 154.890557 6.874627 Z M 159.487087 3.237695 C 160.231624 2.757217 161.302832 2.396518 162.451625 2.396518 C 164.157119 2.396518 165.152104 3.296224 165.152104 4.596102 C 165.152104 5.784367 164.462012 6.492154 162.719767 7.142773 C 160.616824 7.907727 159.314224 9.017047 159.314224 10.816459 C 159.314224 12.826846 160.980245 14.318643 163.486082 14.318643 C 164.788683 14.318643 165.764612 14.011028 166.319952 13.688440 L 165.861252 12.328673 C 165.459719 12.579120 164.598125 12.941180 163.430276 12.941180 C 161.670337 12.941180 161.000662 11.887667 161.000662 11.007017 C 161.000662 9.802418 161.786033 9.210327 163.565028 8.520235 C 165.746917 7.679058 166.837181 6.625544 166.837181 4.732214 C 166.837181 2.742244 165.383496 1.001361 162.340012 1.001361 C 161.095941 1.001361 159.737535 1.382477 159.047443 1.842539 L 159.487087 3.237695 Z" transform="scale(1.000000,1.000000) translate(132.026879,196.120837)" fill="#1d1d1d" opacity="1.000000"></path>
        <path d="M 181.928012 31.387195 C 181.483076 31.387195 180.604160 31.247989 180.181001 31.110496 C 179.757842 30.973003 178.964960 30.569010 178.604999 30.307483 C 178.245038 30.045956 177.615804 29.416722 177.354277 29.056761 C 177.092750 28.696800 176.688757 27.903918 176.551264 27.480759 C 176.413771 27.057600 176.274565 26.178684 176.274565 25.733748 C 176.274565 25.288812 176.413771 24.409896 176.551264 23.986736 C 176.688757 23.563577 177.092750 22.770695 177.354277 22.410735 C 177.615804 22.050774 178.245038 21.421539 178.604999 21.160013 C 178.964960 20.898486 179.757842 20.494492 180.181001 20.357000 C 180.604160 20.219507 181.483076 20.080300 181.928012 20.080300 C 182.372948 20.080300 183.251864 20.219507 183.675023 20.357000 C 184.098183 20.494493 184.891064 20.898486 185.251025 21.160013 C 185.610986 21.421540 186.240220 22.050774 186.501747 22.410735 C 186.763274 22.770696 187.167267 23.563577 187.304760 23.986736 C 187.442253 24.409896 187.581459 25.288812 187.581459 25.733748 C 187.581459 26.178684 187.442253 27.057600 187.304760 27.480759 C 187.167267 27.903918 186.763274 28.696800 186.501747 29.056761 C 186.240220 29.416721 185.610986 30.045956 185.251025 30.307483 C 184.891064 30.569010 184.098183 30.973003 183.675023 31.110496 C 183.251864 31.247988 182.372948 31.387195 181.928012 31.387195 M 181.928012 6.651406 C 171.391516 6.651406 162.846351 15.197932 162.846351 25.734429 C 162.846351 36.273647 171.390155 44.816089 181.928012 44.816089 C 192.467230 44.816089 201.012395 36.272286 201.012395 25.734429 C 201.011034 15.199294 192.467230 6.651406 181.928012 6.651406 Z M 108.071816 31.387195 L 106.658964 31.387195 C 106.214082 31.387195 105.335272 31.248005 104.912163 31.110529 C 104.489055 30.973053 103.696269 30.569108 103.336351 30.307613 C 102.976434 30.046118 102.347275 29.416959 102.085780 29.057041 C 101.824285 28.697124 101.420340 27.904338 101.282864 27.481230 C 101.145388 27.058121 101.006198 26.179311 101.006198 25.734429 L 101.006198 7.359194 L 87.526939 7.359194 L 87.529662 25.734429 C 87.535106 36.273647 96.063937 44.816089 106.548710 44.816089 L 108.073174 44.816089 L 108.071813 31.387195 Z M 57.542640 6.651406 C 47.002061 6.651406 38.458257 15.197932 38.458257 25.734429 C 38.458257 36.273647 47.002061 44.816089 57.542640 44.816089 C 68.079136 44.816089 76.624301 36.272286 76.624301 25.734429 C 76.624301 15.199294 68.079136 6.651406 57.542640 6.651406 Z M 181.932093 50.474299 C 169.257264 50.474299 158.811964 40.936871 157.367806 28.651324 C 155.926371 40.936870 145.486515 50.474299 132.807602 50.474299 L 132.807602 68.849534 L 127.157557 68.849534 L 127.157557 25.734426 C 127.157557 25.289437 127.296781 24.410415 127.434290 23.987204 C 127.571799 23.563994 127.975841 22.771017 128.237400 22.411013 C 128.498958 22.051009 129.128268 21.421699 129.488272 21.160141 C 129.848276 20.898582 130.641253 20.494540 131.064464 20.357031 C 131.487674 20.219522 132.366696 20.080298 132.811685 20.080298 C 133.256675 20.080298 134.135696 20.219522 134.558907 20.357031 C 134.982117 20.494540 135.775094 20.898582 136.135098 21.160141 C 136.495102 21.421699 137.124412 22.051009 137.385970 22.411013 C 137.647529 22.771017 138.051571 23.563994 138.189080 23.987204 C 138.326589 24.410415 138.465813 25.289437 138.465813 25.734426 C 138.465706 25.956631 138.430624 26.399654 138.395758 26.619106 C 138.360892 26.838558 138.256939 27.270639 138.188172 27.481935 C 138.119405 27.693231 137.949140 28.103730 137.848165 28.301668 C 137.747191 28.499605 137.514806 28.878415 137.384110 29.058119 C 137.253415 29.237824 136.964631 29.575616 136.807433 29.732663 C 136.650235 29.889710 136.312165 30.178168 136.132334 30.308691 C 135.952504 30.439213 135.573471 30.671234 135.375436 30.772017 C 135.177402 30.872801 134.766739 31.042671 134.555377 31.111235 C 134.344014 31.179798 133.911834 31.283335 133.692348 31.317990 C 133.472862 31.352645 133.029806 31.387300 132.807601 31.387193 L 132.807601 44.816087 C 143.353625 44.816087 151.893346 36.272283 151.893346 25.734426 C 151.893346 15.199292 143.353625 6.651404 132.807601 6.651404 C 122.271105 6.651404 113.727302 15.197929 113.727302 25.734426 L 113.727302 68.850895 L 108.071813 68.850895 L 108.071813 50.475660 L 106.547349 50.475660 C 93.999105 50.475660 83.606889 41.034873 82.075619 28.839162 C 80.547072 41.034873 70.150773 50.475660 57.541278 50.475660 C 55.083080 50.475660 52.713356 50.110878 50.471577 49.445286 L 50.471577 49.766512 C 50.452522 63.407743 39.383825 74.500940 25.737149 74.500940 C 12.090474 74.500940 1.024500 63.410465 1.000000 49.767874 L 1.000000 1.703704 L 6.655489 1.703704 L 6.655489 49.767874 C 6.677267 60.285315 15.212904 68.849535 25.737150 68.849535 C 36.261396 68.849535 44.795671 60.283953 44.818811 49.765152 L 31.391278 49.765152 C 31.391385 50.210249 31.252340 51.089516 31.114900 51.512861 C 30.977459 51.936206 30.573511 52.729472 30.311976 53.089625 C 30.050441 53.449779 29.421131 54.079392 29.061103 54.341100 C 28.701076 54.602808 27.908005 55.007138 27.484726 55.144783 C 27.061447 55.282427 26.182247 55.421896 25.737150 55.422003 C 25.292053 55.422110 24.412786 55.283064 23.989441 55.145624 C 23.566096 55.008183 22.772831 54.604235 22.412677 54.342700 C 22.052523 54.081166 21.422910 53.451856 21.161202 53.091828 C 20.899494 52.731800 20.495164 51.938729 20.357520 51.515450 C 20.219875 51.092171 20.080407 50.212971 20.080300 49.767874 L 20.080300 44.109663 L 40.981789 44.109663 C 40.423973 43.607326 39.371413 42.536753 38.878612 41.970495 C 38.385811 41.404236 37.470804 40.213955 37.050288 39.592129 C 36.629771 38.970303 35.865816 37.677871 35.523788 37.009651 C 35.181760 36.341430 34.580127 34.965914 34.321632 34.261157 C 34.063138 33.556400 33.632701 32.118092 33.461554 31.387195 L 20.129300 31.387195 L 20.080299 1.703703 L 25.783428 1.703703 L 25.783428 25.734429 L 32.802768 25.734429 C 32.805491 12.075504 43.878272 1.000000 57.542640 1.000000 C 69.687990 1.000000 79.786201 9.762946 81.874173 21.310760 L 81.874173 1.705064 L 106.660322 1.705064 L 106.660322 25.734429 L 108.073173 25.734429 C 108.071816 12.072778 119.147320 1.000000 132.806239 1.000000 C 145.483790 1.000000 155.923645 10.531983 157.366443 22.817528 C 158.810604 10.531981 169.255899 1.000000 181.932083 1.000000 C 195.589647 1.000000 206.669232 12.075503 206.669232 25.734429 C 206.669232 39.396075 195.589646 50.474301 181.932083 50.474301 Z M 57.542640 31.387195 C 57.097758 31.387409 56.218880 31.248643 55.795706 31.111370 C 55.372531 30.974098 54.579551 30.570535 54.219507 30.309213 C 53.859464 30.047891 53.230002 29.419035 52.968334 29.059244 C 52.706665 28.699452 52.302339 27.906861 52.164659 27.483819 C 52.026979 27.060776 51.887366 26.182033 51.887151 25.737151 C 51.886937 25.292268 52.025704 24.413391 52.162976 23.990217 C 52.300249 23.567042 52.703812 22.774061 52.965134 22.414018 C 53.226456 22.053975 53.855311 21.424513 54.215103 21.162844 C 54.574894 20.901176 55.367486 20.496849 55.790528 20.359169 C 56.213570 20.221489 57.092313 20.081876 57.537196 20.081662 C 57.982078 20.081448 58.860955 20.220214 59.284130 20.357487 C 59.707304 20.494759 60.500285 20.898322 60.860328 21.159644 C 61.220372 21.420966 61.849833 22.049822 62.111502 22.409613 C 62.373171 22.769405 62.777497 23.561997 62.915177 23.985039 C 63.052857 24.408081 63.192470 25.286824 63.192684 25.731706 C 63.192899 26.176589 63.054132 27.055466 62.916860 27.478640 C 62.779587 27.901815 62.376024 28.694796 62.114702 29.054839 C 61.853380 29.414882 61.224525 30.044344 60.864733 30.306013 C 60.504942 30.567681 59.712350 30.972008 59.289308 31.109688 C 58.866266 31.247368 57.987523 31.386981 57.542640 31.387195 Z" transform="scale(1.000000,1.000000) translate(50.135941,228.378223)" fill="#0a56a8" opacity="1.000000"></path>
    </g>
</svg>