<?xml version="1.0" encoding="UTF-8" standalone="yes"?>
<!DOCTYPE svg PUBLIC "-//W3C//DTD SVG 1.1//EN" "http://www.w3.org/Graphics/SVG/1.1/DTD/svg11.dtd">

<svg width="350" height="500" viewBox="0 0 350 500" xmlns="http://www.w3.org/2000/svg" xmlns:xlink="http://www.w3.org/1999/xlink" version="1.1" baseProfile="full">
    <g transform="scale(1,-1) translate(0,-500)">
        <path d="M 1.000000 1.000000 L 351.000000 1.000000 C 351.000000 1.000000 351.000000 1.000000 351.000000 1.000000 L 351.000000 501.000000 C 351.000000 501.000000 351.000000 501.000000 351.000000 501.000000 L 1.000000 501.000000 C 1.000000 501.000000 1.000000 501.000000 1.000000 501.000000 L 1.000000 1.000000 C 1.000000 1.000000 1.000000 1.000000 1.000000 1.000000 Z" transform="scale(1.000000,1.000000) translate(-1.000000,-1.000000)" fill="#ffffff" opacity="1.000000"></path>
        <path d="M 52.552560 9.207338 L 62.190983 9.207338 L 62.190983 1.861788 L 52.550472 1.861788 L 52.550472 9.207338 Z M 37.529280 1.861786 L 37.529280 28.914556 L 47.525997 28.914556 L 47.525997 25.543667 C 47.525997 25.543667 50.095686 29.770074 54.942579 29.770074 C 55.513970 29.770074 56.854177 29.738736 57.235452 29.699042 L 57.235452 19.315827 C 52.067870 19.315827 48.381516 17.021909 48.381516 12.388113 L 48.381516 1.861786 L 37.529280 1.861786 Z M 226.825534 1.861786 L 226.825534 8.286009 L 240.215077 20.254911 L 226.825534 20.254911 L 226.825534 28.914554 L 251.258472 28.914554 L 251.258472 20.822122 L 238.195886 9.187490 L 251.260561 9.187490 L 251.260561 1.861787 L 226.827623 1.861787 Z M 213.534183 1.001045 C 206.399640 1.001045 204.226895 2.471826 204.226895 7.307229 L 204.226895 27.739391 L 209.314044 34.637857 L 215.074952 34.637857 L 215.074952 28.913509 L 223.325116 28.913509 L 223.325116 20.593357 L 215.074952 20.593357 L 215.074952 10.600818 C 215.074952 7.757447 217.084741 7.373038 219.257487 7.373038 C 220.765873 7.373038 222.051763 7.496299 222.993982 7.655077 L 222.732835 1.986092 C 220.869288 1.582881 216.970881 1.000000 213.535228 1.000000 M 156.002396 1.860741 L 156.002396 17.216200 C 156.002396 19.726348 154.651743 21.109384 152.205315 21.109384 C 149.468492 21.109384 147.832665 19.529965 147.832665 16.889244 L 147.832665 1.861786 L 136.984611 1.861786 L 136.984611 35.825557 L 147.832669 35.825557 L 147.832669 24.297472 C 148.825029 27.831316 153.337653 29.771118 157.542124 29.771118 C 163.804436 29.771118 166.849413 27.368563 166.849413 22.417211 L 166.849413 1.861786 L 156.001355 1.861786 Z M 121.831797 1.000000 C 111.970877 1.000000 107.761182 5.324599 107.761182 15.452935 C 107.761182 26.029399 111.876863 29.770073 123.503139 29.770073 C 126.824932 29.770073 130.702447 28.892618 133.144696 28.015163 L 133.144696 19.389991 C 131.299951 19.853789 128.603867 20.447115 126.072828 20.447115 C 122.381250 20.447115 118.607150 19.728438 118.607150 14.409390 C 118.607150 9.353579 121.988485 8.657883 125.647680 8.657883 C 128.148426 8.657883 130.500841 8.990062 133.147829 9.725453 L 133.147829 3.064109 C 129.896024 1.737481 125.904649 1.002090 121.831796 1.002090 M 91.026865 1.002090 C 86.973859 1.002090 82.438253 1.296664 77.526596 1.869099 L 77.526596 8.940967 C 79.169734 8.679819 82.318126 8.331971 88.547011 8.331971 C 90.458609 8.331971 93.344808 8.331971 93.344808 11.408286 C 93.344808 14.047962 91.924167 14.539964 89.119445 14.539964 L 86.119386 14.539964 C 80.303114 14.539964 76.192655 15.284756 76.192655 24.944071 C 76.192655 33.424045 81.894023 35.155974 90.454430 35.155974 C 95.371310 35.155974 101.057008 34.447742 103.485679 34.115563 L 103.485679 25.570824 L 101.651380 25.729602 C 99.207042 25.959411 96.438881 26.214291 93.221547 26.214291 C 90.140009 26.214291 87.371848 25.974035 87.371848 23.038740 C 87.371848 20.518147 89.708594 20.192235 91.745542 20.192235 C 101.810158 20.192235 104.531312 19.082882 104.531312 11.267267 C 104.531312 2.591954 99.985260 1.002090 91.026864 1.002090 M 1.000000 1.861786 L 1.000000 34.300457 L 16.748225 34.300457 C 23.015759 34.300457 26.822242 33.473142 29.464008 31.534385 C 32.632246 29.215397 34.108251 25.190596 34.108251 18.889635 C 34.108251 7.591360 29.261358 1.862834 19.699190 1.862834 L 1.000000 1.862834 Z M 11.853281 9.800663 L 16.175790 9.800663 C 22.405720 9.800663 22.923836 14.004090 22.923836 17.930700 C 22.923836 23.393901 21.321436 24.977497 15.789292 24.977497 L 11.851192 24.977497 L 11.851192 9.799619 Z M 185.641557 1.207874 C 176.645556 1.207874 170.655883 2.906376 170.655883 11.232795 L 170.655883 29.122429 L 181.509163 29.122429 L 181.509163 12.328571 C 181.509163 9.320155 182.842059 7.861908 185.593507 7.861908 C 188.336598 7.861908 189.677850 9.320155 189.677850 12.327527 L 189.677850 29.120340 L 200.524863 29.120340 L 200.524863 11.231751 C 200.522774 2.400795 192.996510 1.207875 185.641558 1.207875 M 257.767295 26.741810 L 257.767295 25.352507 C 258.921566 25.352507 259.428192 25.561425 259.428192 26.062827 C 259.428192 26.501555 259.102280 26.802397 258.387781 26.802397 L 257.768340 26.741810 Z M 257.733868 24.548173 L 257.733868 22.586435 L 256.605712 22.586435 L 256.605712 27.454220 C 257.047573 27.548233 257.673282 27.606730 258.475527 27.606730 C 259.399988 27.606730 259.812601 27.454220 260.172984 27.247391 C 260.434131 27.040563 260.647227 26.654065 260.647227 26.179821 C 260.647227 25.640813 260.229392 25.166570 259.633976 24.986901 C 260.114487 24.812454 260.378768 24.454160 260.526055 23.800248 C 260.674386 23.058589 260.766310 22.759837 260.881215 22.585390 L 259.666358 22.585390 C 259.513848 22.758792 259.426103 23.204832 259.279860 23.770999 C 259.185847 24.303739 258.893362 24.543995 258.266609 24.543995 L 257.733868 24.543995 L 257.733868 24.546084 Z M 258.506864 29.029460 C 256.334119 29.029460 254.733809 27.281863 254.733809 25.136277 C 254.733809 22.969799 256.335164 21.250406 258.536113 21.250406 C 260.675431 21.250406 262.248582 22.969799 262.248582 25.115385 C 262.248582 27.281863 260.674387 29.030505 258.508954 29.030505 M 258.508954 30.015552 C 261.327255 30.015552 263.500000 27.849075 263.500000 25.137322 C 263.500000 22.381696 261.327255 20.208950 258.506864 20.208950 C 255.714677 20.208950 253.486569 22.381696 253.486569 25.137322 C 253.486569 27.849075 255.711544 30.015552 258.506864 30.015552 Z" transform="scale(1.000000,1.000000) translate(42.750000,231.587222)" fill="#0952a4" opacity="1.000000"></path>
    </g>
</svg>